<svg width="24" height="25" viewBox="0 0 24 25" fill="none" xmlns="http://www.w3.org/2000/svg">
<path fill-rule="evenodd" clip-rule="evenodd" d="M4.125 5.40332C3.50368 5.40332 3 5.907 3 6.52832V17.7783C3 18.3996 3.50368 18.9033 4.125 18.9033H19.875C20.4963 18.9033 21 18.3996 21 17.7783V6.52832C21 5.907 20.4963 5.40332 19.875 5.40332H4.125ZM1.5 6.52832C1.5 5.07857 2.67525 3.90332 4.125 3.90332H19.875C21.3247 3.90332 22.5 5.07857 22.5 6.52832V17.7783C22.5 19.2281 21.3247 20.4033 19.875 20.4033H4.125C2.67525 20.4033 1.5 19.2281 1.5 17.7783V6.52832Z" fill="#C4C4CC"/>
<path fill-rule="evenodd" clip-rule="evenodd" d="M4.65797 7.19288C4.91227 6.86591 5.38348 6.80701 5.71044 7.06132L12 11.9532L18.2895 7.06132C18.6165 6.80701 19.0877 6.86591 19.342 7.19288C19.5963 7.51984 19.5374 7.99104 19.2105 8.24534L12.4605 13.4953C12.1896 13.706 11.8104 13.706 11.5395 13.4953L4.78952 8.24534C4.46256 7.99104 4.40366 7.51984 4.65797 7.19288Z" fill="#C4C4CC"/>
</svg>
