<svg width="18" height="18" viewBox="0 0 18 18" fill="none" xmlns="http://www.w3.org/2000/svg">
<g clip-path="url(#clip0_1_5)">
<path fill-rule="evenodd" clip-rule="evenodd" d="M0.875 9C0.875 4.5142 4.5142 0.875 9 0.875C13.4858 0.875 17.125 4.5142 17.125 9C17.125 13.4858 13.4858 17.125 9 17.125C4.5142 17.125 0.875 13.4858 0.875 9ZM9 2.125C5.20455 2.125 2.125 5.20455 2.125 9C2.125 12.7954 5.20455 15.875 9 15.875C12.7954 15.875 15.875 12.7954 15.875 9C15.875 5.20455 12.7954 2.125 9 2.125Z" fill="#F75A68"/>
<path fill-rule="evenodd" clip-rule="evenodd" d="M8.99177 4.62699C9.10715 4.62589 9.22155 4.64832 9.32799 4.69291C9.43448 4.73753 9.53076 4.80339 9.61093 4.88647C9.6911 4.96956 9.75349 5.06812 9.79429 5.17613C9.83508 5.28413 9.85342 5.39933 9.84819 5.51468L9.62431 10.2793C9.60865 10.6127 9.33379 10.875 9.00003 10.875C8.66626 10.875 8.39138 10.6128 8.37569 10.2794L8.15142 5.51468C8.14625 5.4007 8.1641 5.28686 8.20389 5.17994C8.24369 5.07301 8.30463 4.97521 8.38306 4.89235C8.46149 4.8095 8.55582 4.7433 8.6604 4.69771C8.76493 4.65214 8.87776 4.62809 8.99177 4.62699Z" fill="#F75A68"/>
<path d="M9 13.3715C8.84548 13.3715 8.69444 13.3257 8.56596 13.2398C8.43748 13.154 8.33735 13.032 8.27822 12.8892C8.21909 12.7465 8.20362 12.5894 8.23376 12.4378C8.26391 12.2863 8.33831 12.1471 8.44757 12.0378C8.55683 11.9285 8.69604 11.8541 8.84759 11.824C8.99913 11.7939 9.15622 11.8093 9.29897 11.8685C9.44173 11.9276 9.56374 12.0277 9.64959 12.1562C9.73543 12.2847 9.78125 12.4357 9.78125 12.5902C9.78125 12.7974 9.69894 12.9961 9.55243 13.1427C9.40592 13.2892 9.2072 13.3715 9 13.3715Z" fill="#F75A68"/>
</g>
<defs>
<clipPath id="clip0_1_5">
<rect width="18" height="18" fill="white"/>
</clipPath>
</defs>
</svg>
