<svg width="600" height="600" viewBox="0 0 600 600" fill="none" xmlns="http://www.w3.org/2000/svg">
<path d="M371.987 227.641C419.615 275.269 457.026 326.349 478.901 371.193C505.259 425.226 508.997 470.915 490.004 489.907C470.211 509.7 421.737 505.791 364.273 476.928C320.828 455.107 272.242 417.809 227.031 372.597C180.677 326.243 142.081 277.052 120.364 232.781C92.884 176.758 90.307 129.038 109.721 109.624C128.559 90.785 172.969 93.568 226.415 119.381C271.574 141.193 323.895 179.548 371.987 227.641Z" stroke="#E44063" stroke-width="24" stroke-miterlimit="10"/>
<path d="M272.931 201.125C337.983 183.66 400.92 176.771 450.698 180.223C510.672 184.383 552.118 203.97 559.083 229.911C566.342 256.944 538.738 296.984 485.029 332.345C444.421 359.078 387.84 382.533 326.088 399.114C262.776 416.112 200.881 424.972 151.68 421.667C89.42 417.486 46.796 395.878 39.676 369.361C32.769 343.63 57.364 306.55 106.426 273.147C147.879 244.923 207.243 218.761 272.931 201.125Z" stroke="#E44063" stroke-width="24" stroke-miterlimit="10"/>
<path d="M200.469 273.707C217.826 208.626 243.289 150.657 271.14 109.257C304.696 59.375 342.365 33.249 368.318 40.171C395.363 47.383 416.267 91.294 420.078 155.486C422.961 204.019 415.023 264.752 398.547 326.532C381.655 389.873 358.421 447.921 330.985 488.897C296.269 540.749 256.262 566.885 229.733 559.81C203.99 552.945 184.149 513.118 179.712 453.929C175.963 403.92 182.944 339.424 200.469 273.707Z" stroke="#E44063" stroke-width="24" stroke-miterlimit="10"/>
<path d="M300 349.369C298.981 349.369 298.119 349.016 297.414 348.311L260.735 312.925C260.343 312.612 259.804 312.103 259.118 311.397C258.432 310.692 257.345 309.409 255.856 307.546C254.367 305.686 253.034 303.775 251.859 301.816C250.684 299.857 249.635 297.486 248.714 294.704C247.794 291.922 247.333 289.218 247.333 286.593C247.333 277.972 249.821 271.232 254.798 266.372C259.775 261.513 266.652 259.083 275.429 259.083C277.859 259.083 280.338 259.504 282.865 260.347C285.392 261.19 287.744 262.326 289.919 263.757C292.093 265.187 293.965 266.529 295.532 267.783C297.099 269.037 298.589 270.369 299.999 271.78C301.41 270.369 302.898 269.037 304.466 267.783C306.034 266.529 307.904 265.187 310.08 263.757C312.255 262.326 314.605 261.19 317.134 260.347C319.661 259.505 322.14 259.083 324.569 259.083C333.347 259.083 340.224 261.513 345.201 266.372C350.179 271.231 352.667 277.972 352.667 286.593C352.667 295.253 348.18 304.07 339.206 313.044L302.587 348.312C301.881 349.017 301.019 349.369 300 349.369Z" fill="#E44063"/>
</svg>
